<svg xmlns="http://www.w3.org/2000/svg" width="262" height="303" viewBox="0 0 262 303">
    <g fill="#1A98F8" fill-rule="evenodd" opacity=".05">
        <path d="M45.21 201.147v.042l85.823 49.478v-.012l.021.012 85.813-49.478v-99.015l-85.813-49.478V.926l130.697 75.377V227.06l-130.697 75.38L.357 227.06v-.035l-.061.035V76.303L130.993.926V52.73l-85.782 49.445v98.973z"/>
        <path d="M92.436 186.368l-17.073-9.841v-64.574l55.998 32.29v64.545l.012.007v-64.553l55.998-32.289-55.998-32.264-.038.02-55.977 32.244v64.574l17.078 9.84"/>
        <path d="M139.11 151.863v64.553l55.998-32.269v-64.574l-55.998 32.29M67.626 119.573v64.574l17.073 9.841 38.925 22.428v-64.553l-55.998-32.29"/>
    </g>
</svg>
