<svg xmlns="http://www.w3.org/2000/svg" width="114" height="30" viewBox="0 0 114 30">
    <g fill="#1A98F8" fill-rule="evenodd">
        <path d="M37.74 18.584h2.852c.137 1.143 1.29 1.875 2.95 1.875 1.533 0 2.617-.742 2.617-1.807 0-.898-.703-1.416-2.432-1.787l-1.836-.39c-2.568-.537-3.828-1.875-3.828-4.024 0-2.656 2.139-4.404 5.39-4.404 3.106 0 5.304 1.738 5.391 4.248h-2.773c-.137-1.113-1.172-1.856-2.598-1.856-1.474 0-2.45.684-2.45 1.758 0 .87.673 1.367 2.323 1.719l1.7.361c2.832.596 4.052 1.817 4.052 4.004 0 2.842-2.177 4.58-5.713 4.58-3.359 0-5.537-1.65-5.644-4.277zM51.919 22.5V11.729h2.842V22.5h-2.842zm6.013 0V11.729h2.754v1.757h.175c.44-1.23 1.563-1.992 2.979-1.992 1.514 0 2.549.742 2.978 1.992h.176c.498-1.2 1.739-1.992 3.242-1.992 2.149 0 3.487 1.397 3.487 3.613V22.5H70.88v-6.64c0-1.28-.596-1.915-1.797-1.915-1.152 0-1.894.82-1.894 1.963V22.5h-2.735v-6.758c0-1.142-.664-1.797-1.777-1.797s-1.904.87-1.904 2.07V22.5H57.93zm19.675 0v-8.428h-1.739v-2.236h1.739v-1.094c0-2.138 1.093-3.222 3.691-3.222.576 0 1.055.039 1.465.107v2.012a7.803 7.803 0 0 0-.85-.05c-1.113 0-1.523.44-1.523 1.358v.889h2.285v2.236h-2.226V22.5h-2.842zm12.038.234c-3.31 0-5.303-2.1-5.303-5.625 0-3.486 2.022-5.615 5.303-5.615s5.303 2.12 5.303 5.615c0 3.526-1.992 5.625-5.303 5.625zm0-2.324c1.514 0 2.383-1.21 2.383-3.3 0-2.07-.88-3.292-2.383-3.292-1.514 0-2.383 1.221-2.383 3.291 0 2.1.86 3.301 2.383 3.301zm7.917 2.09V11.729h2.754v1.728h.176c.498-1.21 1.592-1.963 3.183-1.963 2.393 0 3.682 1.465 3.682 4.043V22.5h-2.842v-6.29c0-1.483-.634-2.265-1.982-2.265-1.318 0-2.129.928-2.129 2.344V22.5h-2.842zm12.869 0V11.729h2.841V22.5h-2.841zm1.425-12.275c-1.025 0-1.68-.596-1.68-1.436 0-.85.655-1.435 1.68-1.435 1.016 0 1.68.585 1.68 1.435 0 .84-.664 1.436-1.68 1.436zM53.344 10.225c-1.026 0-1.68-.596-1.68-1.436 0-.85.654-1.435 1.68-1.435 1.015 0 1.68.585 1.68 1.435 0 .84-.665 1.436-1.68 1.436z"/>
        <g>
            <path d="M4.44 19.883v.004l8.428 4.867v-.001l.002.001 8.427-4.867v-9.739L12.87 5.282V.189l12.835 7.415v14.828L12.87 29.847.035 22.432v-.003l-.006.003V7.604L12.864.189v5.096L4.44 10.148v9.735z"/>
            <path d="M9.046 18.414l-1.677-.969V11.09l5.5 3.178v6.353-6.353l5.5-3.178-5.5-3.175-.003.002-5.498 3.173v6.355l1.678.969"/>
            <path d="M13.63 15.018v6.353l5.498-3.176V11.84l-5.499 3.178M6.61 11.84v6.355l1.676.969 3.822 2.207v-6.353L6.61 11.84"/>
        </g>
    </g>
</svg>
