<svg xmlns="http://www.w3.org/2000/svg" width="137" height="36" viewBox="0 0 137 36">
    <g fill="#FFF" fill-rule="evenodd">
        <path d="M45.29 22.3h3.42c.165 1.372 1.548 2.25 3.54 2.25 1.84 0 3.14-.89 3.14-2.167 0-1.078-.843-1.7-2.917-2.145l-2.203-.468c-3.083-.645-4.594-2.25-4.594-4.829 0-3.187 2.566-5.285 6.469-5.285 3.726 0 6.363 2.086 6.468 5.098h-3.328c-.164-1.336-1.406-2.227-3.117-2.227-1.77 0-2.941.82-2.941 2.11 0 1.043.808 1.64 2.789 2.062l2.039.434c3.398.715 4.863 2.18 4.863 4.805 0 3.41-2.613 5.496-6.856 5.496-4.03 0-6.644-1.98-6.773-5.133zM62.3 27V14.074h3.41V27h-3.41zm7.216 0V14.074h3.305v2.11h.21c.528-1.477 1.876-2.391 3.575-2.391 1.816 0 3.058.89 3.574 2.39h.21c.599-1.44 2.087-2.39 3.892-2.39 2.578 0 4.183 1.676 4.183 4.336V27h-3.41v-7.969c0-1.535-.715-2.297-2.156-2.297-1.383 0-2.274.985-2.274 2.356V27h-3.281v-8.11c0-1.37-.797-2.156-2.133-2.156-1.336 0-2.285 1.043-2.285 2.485V27h-3.41zm23.61 0V16.887H91.04v-2.684h2.086v-1.312c0-2.567 1.312-3.868 4.43-3.868.691 0 1.265.047 1.757.13v2.413a9.364 9.364 0 0 0-1.02-.058c-1.335 0-1.827.527-1.827 1.629v1.066h2.742v2.684h-2.672V27h-3.41zm14.446.281c-3.973 0-6.363-2.52-6.363-6.75 0-4.183 2.425-6.738 6.363-6.738 3.937 0 6.363 2.543 6.363 6.738 0 4.23-2.39 6.75-6.363 6.75zm0-2.789c1.816 0 2.86-1.453 2.86-3.96 0-2.485-1.055-3.95-2.86-3.95-1.817 0-2.86 1.465-2.86 3.95 0 2.519 1.032 3.96 2.86 3.96zm9.5 2.508V14.074h3.305v2.074h.211c.598-1.453 1.91-2.355 3.82-2.355 2.871 0 4.418 1.758 4.418 4.852V27h-3.41v-7.547c0-1.781-.762-2.719-2.379-2.719-1.582 0-2.554 1.114-2.554 2.813V27h-3.41zm15.442 0V14.074h3.41V27h-3.41zm1.711-14.73c-1.23 0-2.015-.715-2.015-1.723 0-1.02.785-1.723 2.015-1.723 1.22 0 2.016.703 2.016 1.723 0 1.008-.797 1.723-2.016 1.723zM64.012 12.27c-1.23 0-2.015-.715-2.015-1.723 0-1.02.785-1.723 2.015-1.723 1.22 0 2.016.703 2.016 1.723 0 1.008-.797 1.723-2.016 1.723z"/>
        <g>
            <path d="M5.328 23.86v.005l10.114 5.84v-.001l.002.001 10.113-5.84V12.178l-10.113-5.84V.228l15.402 8.896V26.92l-15.402 8.897L.042 26.919v-.005l-.007.005V9.124L15.437.227v6.115l-10.11 5.836V23.86z"/>
            <path d="M10.855 22.097l-2.012-1.162v-7.627l6.599 3.814v7.623h.001v-7.623l6.6-3.814-6.6-3.81-.004.002-6.597 3.808v7.627l2.013 1.162"/>
            <path d="M16.355 18.022v7.624l6.6-3.811v-7.627l-6.6 3.814M7.931 14.208v7.627l2.012 1.162 4.587 2.649v-7.624l-6.599-3.814"/>
        </g>
    </g>
</svg>
